<svg id="Layer_1" data-name="Layer 1" xmlns="http://www.w3.org/2000/svg" viewBox="0 0 1280 1280"><defs><style>.cls-1{fill:#e50000;}</style></defs><title>Artboard 1</title><path class="cls-1" d="M32.4,750c0,47.34-.11,113.52-.16,186L1056,1225.35l50.36-157.56L32.4,750Z"/><path class="cls-1" d="M1104.5,1015.15C1193,925.77,1247.76,803,1247.76,667.52c0-161.93-78.37-305.69-199-396l-37.46,38.92c110.6,80.22,182.83,210.31,182.83,357.09,0,131.28-57.82,249.17-149.15,330Z"/><path class="cls-1" d="M662.78,884.5V600.56l390.33-405.51-1-.81C941.16,104.2,801,54.65,657.59,54.65c-344.65,0-625.08,279.23-625.08,622.5,0,1.46-.06,8.8-.06,20.89Z"/><path class="cls-1" d="M1145.48,712.38l-77.53-78c-18.23-28.84-49.21-50.54-86.28-59.78-1.33-21.42-8.27-45.11-28.5-63a20.42,20.42,0,0,0-22-3.27c-2.76,1.25-21.55,10.34-34.86,28.91-12-14.48-28.58-27.09-51.17-31.09a20.43,20.43,0,0,0-20.51,8.7c-2.28,3.36-21.78,33.65-12.38,67.34a68.55,68.55,0,0,0,18.25,30.49,125.13,125.13,0,0,0-30.91,47.16,17.67,17.67,0,0,0-.85,2.34A108.56,108.56,0,0,0,793,697.33c-7.93,21.42-28.37,52.9-80.27,83.81l0,118.19,221,65.32c0-.73-.07-1.47-.12-2.21a20.19,20.19,0,0,0,0-5.38c-.1-.85-8.63-67.48,21-120.44,97.62-4.9,160.14-26.34,185.79-63.65,17.94-26.16,10.9-50,10-52.57A20.66,20.66,0,0,0,1145.48,712.38ZM982.71,689.54a23.6,23.6,0,1,1,22.41-24.74A23.59,23.59,0,0,1,982.71,689.54Z"/></svg>